<svg width="250" height="181" viewBox="0 0 250 181" fill="none" xmlns="http://www.w3.org/2000/svg">
<g clip-path="url(#clip0_524_52359)">
<path d="M159.312 135.438V178.988H49.8705C37.4011 178.988 27.2559 169.22 27.2559 157.213C27.2559 145.206 37.4011 135.438 49.8705 135.438H159.312Z" fill="#F4F4F5"/>
<path d="M162.001 178.654C162.001 179.099 161.824 179.525 161.509 179.839C161.194 180.153 160.767 180.329 160.321 180.329H47.9218C41.8172 180.329 35.9626 177.912 31.646 173.608C27.3294 169.305 24.9043 163.468 24.9043 157.382C24.9043 151.295 27.3294 145.458 31.646 141.155C35.9626 136.851 41.8172 134.434 47.9218 134.434H160.321C160.767 134.434 161.194 134.61 161.509 134.924C161.824 135.238 162.001 135.664 162.001 136.109C162.001 136.553 161.824 136.979 161.509 137.293C161.194 137.607 160.767 137.784 160.321 137.784H47.9218C42.7083 137.784 37.7084 139.848 34.022 143.524C30.3355 147.199 28.2645 152.184 28.2645 157.382C28.2645 162.579 30.3355 167.564 34.022 171.239C37.7084 174.915 42.7083 176.979 47.9218 176.979H160.321C160.767 176.98 161.194 177.156 161.509 177.47C161.824 177.784 162.001 178.21 162.001 178.654Z" fill="#0096E0"/>
<path d="M159.313 145.488H41.7052C41.616 145.488 41.5306 145.453 41.4676 145.39C41.4045 145.327 41.3691 145.242 41.3691 145.153C41.3691 145.065 41.4045 144.979 41.4676 144.916C41.5306 144.854 41.616 144.818 41.7052 144.818H159.313C159.402 144.818 159.487 144.854 159.55 144.916C159.613 144.979 159.649 145.065 159.649 145.153C159.649 145.242 159.613 145.327 159.55 145.39C159.487 145.453 159.402 145.488 159.313 145.488Z" fill="#D3D4DB"/>
<path d="M159.313 153.529H41.7052C41.616 153.529 41.5306 153.494 41.4676 153.431C41.4045 153.368 41.3691 153.283 41.3691 153.194C41.3691 153.106 41.4045 153.02 41.4676 152.958C41.5306 152.895 41.616 152.859 41.7052 152.859H159.313C159.402 152.859 159.487 152.895 159.55 152.958C159.613 153.02 159.649 153.106 159.649 153.194C159.649 153.283 159.613 153.368 159.55 153.431C159.487 153.494 159.402 153.529 159.313 153.529Z" fill="#D3D4DB"/>
<path d="M159.313 161.568H41.7052C41.616 161.568 41.5306 161.533 41.4676 161.47C41.4045 161.407 41.3691 161.322 41.3691 161.233C41.3691 161.145 41.4045 161.059 41.4676 160.997C41.5306 160.934 41.616 160.898 41.7052 160.898H159.313C159.402 160.898 159.487 160.934 159.55 160.997C159.613 161.059 159.649 161.145 159.649 161.233C159.649 161.322 159.613 161.407 159.55 161.47C159.487 161.533 159.402 161.568 159.313 161.568Z" fill="#D3D4DB"/>
<path d="M159.313 169.609H41.7052C41.616 169.609 41.5306 169.574 41.4676 169.511C41.4045 169.449 41.3691 169.363 41.3691 169.274C41.3691 169.186 41.4045 169.1 41.4676 169.038C41.5306 168.975 41.616 168.939 41.7052 168.939H159.313C159.402 168.939 159.487 168.975 159.55 169.038C159.613 169.1 159.649 169.186 159.649 169.274C159.649 169.363 159.613 169.449 159.55 169.511C159.487 169.574 159.402 169.609 159.313 169.609Z" fill="#D3D4DB"/>
<path d="M243.896 143.635L216.489 177.548L131.269 109.089C121.559 101.289 119.807 87.3363 127.363 77.9869C134.919 68.6376 148.966 67.377 158.676 75.1769L243.896 143.635Z" fill="#F4F4F5"/>
<path d="M218.791 178.97C218.512 179.316 218.106 179.537 217.663 179.584C217.22 179.632 216.776 179.502 216.429 179.223L128.906 108.915C124.152 105.096 121.115 99.5513 120.462 93.5001C119.809 87.4488 121.594 81.3868 125.424 76.6477C129.255 71.9085 134.816 68.8803 140.886 68.2294C146.955 67.5784 153.036 69.358 157.789 73.1766L245.312 143.485C245.484 143.623 245.627 143.793 245.733 143.987C245.839 144.18 245.906 144.392 245.929 144.61C245.953 144.829 245.933 145.05 245.871 145.262C245.809 145.473 245.706 145.67 245.567 145.841C245.429 146.012 245.258 146.155 245.064 146.26C244.87 146.366 244.658 146.432 244.438 146.455C244.219 146.479 243.997 146.459 243.785 146.397C243.573 146.335 243.376 146.232 243.204 146.094L155.681 75.7852C153.671 74.1692 151.361 72.9639 148.884 72.2381C146.407 71.5123 143.81 71.2801 141.243 71.555C138.676 71.8298 136.188 72.6062 133.922 73.8398C131.655 75.0735 129.655 76.7402 128.035 78.7447C126.415 80.7493 125.207 83.0524 124.48 85.5225C123.753 87.9926 123.521 90.5813 123.798 93.1408C124.074 95.7002 124.854 98.1803 126.092 100.439C127.33 102.698 129.003 104.692 131.014 106.306L218.537 176.615C218.884 176.893 219.106 177.298 219.153 177.74C219.201 178.181 219.071 178.624 218.791 178.97Z" fill="#E00051"/>
<path d="M237.571 151.461L145.992 77.8947C145.958 77.8671 145.929 77.833 145.908 77.7944C145.887 77.7558 145.874 77.7134 145.869 77.6697C145.864 77.6259 145.868 77.5817 145.881 77.5395C145.893 77.4973 145.914 77.4579 145.942 77.4236C145.969 77.3894 146.003 77.3609 146.042 77.3398C146.081 77.3187 146.123 77.3055 146.167 77.3008C146.211 77.296 146.256 77.3 146.298 77.3124C146.34 77.3248 146.38 77.3454 146.414 77.373L237.993 150.939C238.027 150.967 238.056 151.001 238.077 151.04C238.098 151.078 238.112 151.121 238.116 151.164C238.121 151.208 238.117 151.253 238.105 151.295C238.092 151.337 238.072 151.376 238.044 151.411C238.016 151.445 237.982 151.474 237.943 151.495C237.904 151.516 237.862 151.529 237.818 151.534C237.774 151.538 237.73 151.534 237.687 151.522C237.645 151.509 237.605 151.489 237.571 151.461V151.461Z" fill="#D3D4DB"/>
<path d="M232.51 157.723L140.932 84.1561C140.862 84.1004 140.818 84.0194 140.809 83.9312C140.799 83.8429 140.825 83.7545 140.881 83.6854C140.937 83.6162 141.018 83.572 141.107 83.5625C141.195 83.5529 141.284 83.5788 141.353 83.6344L232.932 157.201C232.966 157.228 232.995 157.263 233.016 157.301C233.037 157.34 233.051 157.382 233.055 157.426C233.06 157.47 233.056 157.514 233.044 157.556C233.031 157.599 233.011 157.638 232.983 157.672C232.955 157.706 232.921 157.735 232.882 157.756C232.844 157.777 232.801 157.79 232.757 157.795C232.713 157.8 232.669 157.796 232.626 157.783C232.584 157.771 232.545 157.75 232.51 157.723Z" fill="#D3D4DB"/>
<path d="M227.45 163.983L135.871 90.4162C135.802 90.3604 135.758 90.2795 135.748 90.1912C135.738 90.1028 135.765 90.0143 135.82 89.9451C135.876 89.8759 135.958 89.8317 136.046 89.8222C136.135 89.8127 136.224 89.8387 136.293 89.8945L227.872 163.461C227.906 163.489 227.935 163.523 227.956 163.561C227.977 163.6 227.99 163.642 227.995 163.686C228 163.73 227.996 163.774 227.983 163.816C227.971 163.858 227.95 163.898 227.922 163.932C227.895 163.966 227.861 163.995 227.822 164.016C227.783 164.037 227.741 164.05 227.697 164.055C227.653 164.06 227.608 164.056 227.566 164.043C227.524 164.031 227.484 164.01 227.45 163.983V163.983Z" fill="#D3D4DB"/>
<path d="M222.391 170.244L130.813 96.6779C130.778 96.6503 130.75 96.6162 130.729 96.5776C130.707 96.539 130.694 96.4966 130.689 96.4529C130.685 96.4091 130.689 96.3649 130.701 96.3227C130.714 96.2805 130.734 96.2411 130.762 96.2068C130.79 96.1726 130.824 96.1441 130.862 96.123C130.901 96.1019 130.944 96.0887 130.988 96.084C131.031 96.0792 131.076 96.0832 131.118 96.0956C131.161 96.108 131.2 96.1286 131.234 96.1562L222.813 169.723C222.847 169.75 222.876 169.784 222.897 169.823C222.918 169.861 222.932 169.904 222.937 169.948C222.941 169.991 222.937 170.036 222.925 170.078C222.913 170.12 222.892 170.16 222.864 170.194C222.836 170.228 222.802 170.257 222.763 170.278C222.725 170.299 222.682 170.312 222.638 170.317C222.594 170.322 222.55 170.318 222.508 170.305C222.465 170.293 222.426 170.272 222.391 170.244Z" fill="#D3D4DB"/>
<path d="M113.602 130.861L109.761 130.86L107.934 116.088L113.603 116.089L113.602 130.861Z" fill="#FFBFD6"/>
<path d="M107.016 129.766H114.425V134.416H102.352C102.352 133.805 102.472 133.201 102.707 132.636C102.941 132.072 103.285 131.56 103.718 131.128C104.151 130.696 104.665 130.353 105.231 130.12C105.797 129.886 106.404 129.766 107.016 129.766Z" fill="#1D2533"/>
<path d="M74.3558 130.861L70.5144 130.86L68.6875 116.088L74.3572 116.089L74.3558 130.861Z" fill="#FFBFD6"/>
<path d="M67.772 129.766H75.1806V134.416H63.1074C63.1074 133.805 63.2281 133.201 63.4625 132.636C63.6969 132.072 64.0405 131.56 64.4737 131.128C64.9068 130.696 65.421 130.353 65.987 130.12C66.5529 129.886 67.1595 129.766 67.772 129.766Z" fill="#1D2533"/>
<path d="M87.1875 21.2837V19.6086C87.1875 16.7432 88.3292 13.9952 90.3615 11.9691C92.3938 9.94296 95.1501 8.80469 98.0242 8.80469H98.0242C100.898 8.80469 103.655 9.94296 105.687 11.9691C107.719 13.9952 108.861 16.7432 108.861 19.6086V21.2837C108.861 23.3494 108.038 25.3306 106.573 26.7913C105.108 28.252 103.12 29.0726 101.048 29.0726H95C93.9741 29.0726 92.9582 28.8711 92.0103 28.4797C91.0624 28.0883 90.2012 27.5145 89.4757 26.7913C88.7503 26.068 88.1748 25.2094 87.7822 24.2644C87.3896 23.3194 87.1875 22.3065 87.1875 21.2837Z" fill="#1D2533"/>
<path d="M98.0245 29.6495C102.583 29.6495 106.278 25.9657 106.278 21.4215C106.278 16.8772 102.583 13.1934 98.0245 13.1934C93.4665 13.1934 89.7715 16.8772 89.7715 21.4215C89.7715 25.9657 93.4665 29.6495 98.0245 29.6495Z" fill="#FFBFD6"/>
<path d="M53.1329 49.7011C53.4678 49.3858 53.868 49.1475 54.3053 49.0031C54.7426 48.8587 55.2063 48.8116 55.6637 48.8652C56.1212 48.9188 56.5614 49.0717 56.9532 49.3132C57.345 49.5547 57.6789 49.879 57.9314 50.263L65.0062 48.9288L66.8681 53.0174L56.8505 54.7617C56.1752 55.1418 55.3835 55.2618 54.6254 55.0989C53.8672 54.9359 53.1954 54.5014 52.7372 53.8776C52.2789 53.2539 52.0661 52.4842 52.139 51.7144C52.212 50.9446 52.5656 50.2283 53.1329 49.7011V49.7011Z" fill="#FFBFD6"/>
<path d="M91.5906 34.8301L91.6831 34.9698L80.0817 42.5893L60.5056 48.8216C60.2461 48.9047 60.0235 49.0749 59.8758 49.3033C59.728 49.5316 59.6642 49.8039 59.6951 50.0739L60.1222 53.7411C60.1411 53.9034 60.1939 54.06 60.2771 54.2008C60.3602 54.3415 60.472 54.4634 60.6052 54.5587C60.7384 54.6539 60.8901 54.7203 61.0505 54.7536C61.211 54.787 61.3767 54.7865 61.5369 54.7523L79.9609 50.8151C80.8525 50.6256 81.6956 50.2555 82.4379 49.7278L95.4714 40.4827C95.9439 40.1457 96.3209 39.6925 96.5658 39.1673C96.8106 38.642 96.915 38.0626 96.8687 37.4852C96.8209 36.9071 96.623 36.3513 96.2944 35.8725C95.9658 35.3938 95.5178 35.0086 94.9946 34.7548C94.4714 34.501 93.8909 34.3873 93.3103 34.425C92.7296 34.4628 92.1688 34.6505 91.6831 34.9698L91.5906 34.8301Z" fill="#D3D4DB"/>
<path d="M109.83 126.67C109.535 126.67 109.246 126.584 108.999 126.423C108.753 126.263 108.558 126.034 108.439 125.765L90.8285 82.3811C90.7874 82.287 90.7184 82.2077 90.6307 82.1539C90.543 82.1 90.4409 82.0743 90.3381 82.0801C90.2354 82.0858 90.1368 82.1229 90.0558 82.1861C89.9747 82.2494 89.915 82.3359 89.8848 82.434L75.5171 124.67C75.4564 124.866 75.3561 125.048 75.2222 125.205C75.0884 125.361 74.9238 125.489 74.7387 125.579C74.5536 125.67 74.3518 125.722 74.1458 125.732C73.9398 125.742 73.7339 125.71 73.5407 125.638L68.7227 123.837C68.4612 123.74 68.2318 123.573 68.0599 123.353C67.8881 123.134 67.7805 122.872 67.7493 122.596C65.5818 103.771 84.4832 56.2545 84.6744 55.7769L84.7273 55.6445L101.957 59.4444L101.993 59.4834C108.868 66.96 114.518 114.117 115.581 123.494C115.621 123.833 115.543 124.175 115.362 124.464C115.18 124.753 114.905 124.972 114.583 125.084L110.33 126.584C110.169 126.641 110 126.67 109.83 126.67Z" fill="#1D2533"/>
<path d="M94.9836 60.9737C90.809 60.9737 86.1548 60.1439 84.7222 56.7189L84.6892 56.6402L84.7338 56.5672C85.8646 54.7175 87.3591 51.5621 86.5558 50.9698C84.9734 49.8033 84.2055 47.8844 84.2737 45.2662C84.4217 39.5825 88.3061 34.5363 93.9397 32.7093H93.9397C95.5122 32.2076 97.1124 31.7968 98.7324 31.4791C99.9134 31.2415 101.133 31.2676 102.302 31.5556C103.472 31.8436 104.563 32.3862 105.497 33.1446C106.443 33.908 107.208 34.8707 107.737 35.9638C108.265 37.0568 108.544 38.253 108.554 39.4664C108.613 45.5403 107.675 54 102.871 59.808C102.646 60.0775 102.332 60.2591 101.986 60.321C99.675 60.7378 97.3322 60.9561 94.9836 60.9737Z" fill="#D3D4DB"/>
<path d="M93.431 60.7452C93.6582 59.9327 94.1978 59.2424 94.9326 58.8244C95.6674 58.4064 96.538 58.2943 97.3552 58.5127C97.522 58.5592 97.6847 58.6192 97.8417 58.6923L103.214 53.8184L106.949 56.3276L99.2674 63.1051C98.9205 63.7287 98.3744 64.2186 97.716 64.4971C97.0576 64.7755 96.3247 64.8264 95.6339 64.6417C95.2315 64.5319 94.855 64.3436 94.526 64.0879C94.197 63.8321 93.9222 63.5138 93.7173 63.1515C93.5125 62.7892 93.3817 62.39 93.3325 61.9769C93.2834 61.5639 93.3168 61.1453 93.431 60.7452Z" fill="#FFBFD6"/>
<path d="M102.362 60.8076C102.014 60.8078 101.676 60.6876 101.406 60.4675L99.2877 58.7416C99.1111 58.5977 98.9694 58.4159 98.8733 58.2097C98.7772 58.0035 98.7291 57.7783 98.7326 57.551C98.7361 57.3236 98.7912 57.1 98.8937 56.8969C98.9961 56.6938 99.1434 56.5164 99.3243 56.3781L108.209 49.5842C108.315 49.5033 108.384 49.3842 108.402 49.2528C108.419 49.1215 108.384 48.9884 108.305 48.8825L102.821 41.6543C102.183 40.8173 101.864 39.7826 101.918 38.7333C101.973 37.684 102.398 36.6877 103.119 35.9209C103.878 35.1038 104.917 34.601 106.03 34.5122C107.144 34.4234 108.25 34.7552 109.129 35.4416L109.164 35.4781L114.891 43.6531C115.51 44.1371 116.008 44.7573 116.348 45.4653C116.687 46.1732 116.857 46.9497 116.845 47.7341C116.833 48.5185 116.64 49.2896 116.28 49.9872C115.92 50.6848 115.403 51.2899 114.77 51.7554L103.262 60.512C103.002 60.704 102.686 60.8076 102.362 60.8076Z" fill="#D3D4DB"/>
<path d="M90.7148 19.1068V15.0244L98.0252 11.8418L104.996 15.0244V19.1068C104.996 19.2845 104.925 19.4549 104.799 19.5806C104.673 19.7062 104.502 19.7768 104.324 19.7768H91.3869C91.2086 19.7768 91.0377 19.7062 90.9117 19.5806C90.7856 19.4549 90.7148 19.2845 90.7148 19.1068Z" fill="#1D2533"/>
<path d="M97.6883 9.34654C96.6135 5.91658 98.8709 1.98567 102.208 0.628006C105.545 -0.729663 109.538 0.219389 112.354 2.46246C115.17 4.70554 116.917 8.06524 117.843 11.5382C118.768 15.0111 118.944 18.6325 119.115 22.222C123.215 22.9728 126.004 27.8214 124.584 31.7289C123.164 35.6364 117.906 37.5777 114.276 35.5353C110.645 33.493 109.593 28.0028 112.214 24.7703C113.453 23.2408 114.146 21.3425 114.182 19.3763C114.217 17.41 113.594 15.488 112.41 13.9148C111.227 12.3416 109.55 11.2071 107.647 10.691C105.743 10.1748 103.722 10.3066 101.902 11.0653C99.8811 11.9078 97.3455 9.71882 97.6883 9.34654Z" fill="#1D2533"/>
<path d="M51.6171 33.8636C46.708 33.8315 41.8603 32.773 37.3872 30.7565C37.1209 30.6381 36.8949 30.4452 36.7367 30.2011C36.5785 29.9569 36.4949 29.6722 36.4961 29.3816V17.1814C36.4966 16.7817 36.656 16.3985 36.9395 16.1159C37.223 15.8332 37.6073 15.6743 38.0082 15.6738H65.2259C65.6268 15.6743 66.0112 15.8333 66.2947 16.1159C66.5781 16.3985 66.7376 16.7817 66.738 17.1814V29.3816C66.7393 29.6722 66.6557 29.957 66.4975 30.2011C66.3392 30.4452 66.1132 30.6382 65.847 30.7565C61.3738 32.773 56.5261 33.8315 51.6171 33.8636Z" fill="#0096E0"/>
<path d="M51.6147 23.9791C51.413 23.9793 51.2132 23.9392 51.0271 23.8613L29.4438 14.7828C29.1655 14.6657 28.9287 14.4682 28.764 14.2157C28.5993 13.9633 28.5142 13.6674 28.5198 13.3663C28.5253 13.0652 28.6212 12.7726 28.7951 12.5263C28.9689 12.28 29.2128 12.0913 29.4953 11.9845L51.0789 3.82113C51.4265 3.68905 51.8109 3.68986 52.1579 3.82342L73.4523 11.9867C73.7332 12.0944 73.9754 12.2832 74.148 12.5289C74.3207 12.7746 74.4159 13.0661 74.4214 13.366C74.427 13.6659 74.3427 13.9607 74.1792 14.2126C74.0158 14.4645 73.7807 14.662 73.5041 14.78L52.2095 23.8584C52.0214 23.9382 51.8191 23.9793 51.6147 23.9791Z" fill="#0096E0"/>
<path d="M39.0161 31.5865C40.1296 31.5865 41.0323 30.6866 41.0323 29.5764C41.0323 28.4663 40.1296 27.5664 39.0161 27.5664C37.9027 27.5664 37 28.4663 37 29.5764C37 30.6866 37.9027 31.5865 39.0161 31.5865Z" fill="#272F3D"/>
<path opacity="0.2" d="M73.5773 13.4922L52.2826 22.5706C52.1166 22.6413 51.938 22.678 51.7575 22.6785C51.5769 22.6789 51.3981 22.6431 51.2318 22.5731L29.6485 13.4948C29.3774 13.3835 29.1513 13.1854 29.0058 12.9317C28.9106 13.0962 28.8516 13.279 28.8328 13.468C28.8139 13.657 28.8356 13.8478 28.8964 14.0278C28.9572 14.2078 29.0556 14.3729 29.1853 14.512C29.315 14.6512 29.4729 14.7612 29.6485 14.8349L51.2318 23.9131C51.3981 23.9831 51.5769 24.0189 51.7575 24.0185C51.938 24.0181 52.1166 23.9814 52.2826 23.9106L73.5773 14.8322C73.7521 14.7579 73.909 14.6475 74.0377 14.5083C74.1665 14.3691 74.2642 14.2043 74.3244 14.0247C74.3845 13.845 74.4058 13.6547 74.3867 13.4663C74.3677 13.2779 74.3088 13.0957 74.214 12.9316C74.0695 13.1833 73.8457 13.3804 73.5773 13.4922Z" fill="#101828"/>
<path d="M39.1856 29.5681C39.2748 29.5681 39.3602 29.5328 39.4232 29.4699C39.4863 29.4071 39.5217 29.3219 39.5217 29.2331V18.0233L50.604 13.9981C50.6932 13.9995 50.7792 13.9654 50.8431 13.9035C50.9071 13.8417 50.9437 13.757 50.9451 13.6681C50.9464 13.5793 50.9123 13.4935 50.8502 13.4298C50.7881 13.366 50.7032 13.3294 50.6141 13.3281L39.5317 17.3533C39.4425 17.3512 39.3538 17.3672 39.271 17.4004C39.1882 17.4335 39.1131 17.483 39.05 17.546C38.9863 17.6081 38.9358 17.6824 38.9014 17.7644C38.8669 17.8464 38.8493 17.9344 38.8496 18.0233V29.2331C38.8496 29.3219 38.885 29.4071 38.948 29.4699C39.0111 29.5328 39.0965 29.5681 39.1856 29.5681Z" fill="#272F3D"/>
</g>
<defs>
<clipPath id="clip0_524_52359">
<rect width="250" height="180.664" fill="white"/>
</clipPath>
</defs>
</svg>
