<svg width="75" height="57" viewBox="0 0 75 57" fill="none" xmlns="http://www.w3.org/2000/svg">
<g clip-path="url(#clip0_923_455)">
<path d="M62.9235 56.826L15.0864 56.8426C12.6832 56.8434 10.5304 55.6015 9.3281 53.5207C8.72686 52.4801 8.42618 51.3387 8.42578 50.197C8.42539 49.0554 8.72543 47.9136 9.3258 46.8728L33.2292 3.35809C34.4302 1.27628 36.5821 0.033058 38.9853 0.032227C41.3885 0.031396 43.5412 1.27313 44.7437 3.35411L68.6802 46.8577C69.2799 47.8955 69.5798 49.0356 69.5799 50.1766C69.5799 51.3175 69.28 52.4592 68.6795 53.5002C67.4786 55.5818 65.3267 56.8252 62.9235 56.826ZM9.0271 50.1962C9.02702 51.2354 14.3057 48.9961 14.8526 49.9427C15.9464 51.8358 12.8997 56.2433 15.0862 56.2426C15.0862 56.2426 67.0672 55.0942 68.1598 53.2004C68.706 52.2534 68.979 51.2146 68.9786 50.176C68.9783 49.1375 68.7046 48.099 68.1575 47.1525L44.221 3.64888C43.1302 1.76122 41.1719 0.631471 38.9855 0.632227C36.8001 0.632983 9.02718 49.1569 9.0271 50.1962Z" fill="white"/>
<path d="M52.9439 47.2297C65.039 47.2297 74.8439 37.4247 74.8439 25.3297C74.8439 13.2347 65.039 3.42969 52.9439 3.42969C40.8489 3.42969 31.0439 13.2347 31.0439 25.3297C31.0439 37.4247 40.8489 47.2297 52.9439 47.2297Z" fill="#0096E0"/>
<path d="M52.9483 38.755C54.0588 38.755 54.9591 37.8547 54.9591 36.7442C54.9591 35.6337 54.0588 34.7334 52.9483 34.7334C51.8378 34.7334 50.9375 35.6337 50.9375 36.7442C50.9375 37.8547 51.8378 38.755 52.9483 38.755Z" fill="white"/>
<path d="M52.9397 11.9051C52.755 13.1325 53.0859 13.3893 53.0878 18.6806C53.0896 23.972 54.1875 31.0664 52.9463 31.0668C51.7052 31.0672 51.2512 16.426 46.9413 15.1301C41.874 13.6066 53.5376 7.9319 52.9397 11.9051Z" fill="white"/>
<path d="M23.5506 36.5104L21.572 40.691C23.9639 38.9758 27.7001 37.4972 30.6732 36.7053C27.903 35.3672 24.5133 33.2098 22.4882 31.0737L23.6262 35.491C10.284 32.7735 0.702797 22.5381 0.698741 10.8133L0.216797 10.6475C0.221033 22.8943 9.66971 33.7358 23.5506 36.5104Z" fill="white"/>
</g>
<defs>
<clipPath id="clip0_923_455">
<rect width="75" height="57" fill="white"/>
</clipPath>
</defs>
</svg>
