<svg width="360" height="357" viewBox="0 0 360 357" fill="none" xmlns="http://www.w3.org/2000/svg">
<g clip-path="url(#clip0_524_52287)">
<path d="M356.917 178.2C356.94 198.48 353.489 218.615 346.714 237.733C346.71 237.746 346.705 237.755 346.701 237.767C346.672 237.856 346.642 237.937 346.608 238.025V238.03C345.162 242.085 343.574 246.072 341.843 249.992C337.477 259.876 332.219 269.342 326.134 278.275C324.659 280.451 323.131 282.591 321.552 284.696C319.814 287.024 318.021 289.305 316.172 291.54C314.468 293.602 312.719 295.624 310.925 297.606C308.793 299.968 306.597 302.269 304.337 304.51C299.02 309.798 293.374 314.746 287.433 319.324C286.39 320.133 285.336 320.927 284.27 321.707C281.791 323.536 279.261 325.299 276.683 326.998C271.011 330.742 265.127 334.157 259.062 337.225C258.015 337.758 256.959 338.283 255.899 338.791C251.8 340.767 247.618 342.586 243.352 344.247C242.136 344.725 240.915 345.186 239.681 345.631C239.473 345.711 239.266 345.788 239.054 345.859C224.427 351.131 209.168 354.458 193.672 355.756C192.595 355.853 191.517 355.935 190.438 356.001C189.293 356.082 188.147 356.146 187 356.196C186.093 356.242 185.19 356.276 184.279 356.302C184.092 356.31 183.901 356.319 183.715 356.319C182.49 356.357 181.26 356.381 180.027 356.391C179.506 356.395 178.984 356.399 178.459 356.399C178.213 356.399 177.967 356.399 177.721 356.395C174.165 356.382 170.635 356.266 167.132 356.048C167.06 356.043 166.988 356.035 166.916 356.035C165.661 355.95 164.411 355.861 163.165 355.751C158.726 355.379 154.336 354.843 149.994 354.143C148.994 353.986 147.996 353.817 147.002 353.635C142.682 352.873 138.419 351.955 134.213 350.88C132.962 350.562 131.719 350.23 130.482 349.885C123.347 347.902 116.343 345.473 109.513 342.613C105.592 340.971 101.744 339.196 97.97 337.288C96.2701 336.429 94.5873 335.543 92.9214 334.63C92.4678 334.384 92.0185 334.135 91.5692 333.885C88.2883 332.056 85.0752 330.129 81.9299 328.103C79.3526 326.448 76.8234 324.727 74.3422 322.939C74.037 322.727 73.7361 322.507 73.4351 322.287C71.5318 320.903 69.6596 319.484 67.8186 318.029C63.8128 314.859 59.9497 311.527 56.2293 308.035C53.6563 305.623 51.1582 303.134 48.7349 300.569C34.6154 285.658 23.1766 268.428 14.9211 249.636C13.1662 245.636 11.5554 241.563 10.0887 237.416C10.084 237.407 10.0811 237.397 10.0803 237.386C3.38699 218.37 -0.021581 198.356 0.000102808 178.2C0.000102808 103.381 46.1789 39.3309 111.628 12.9184C134.952 3.54552 159.994 -0.81371 185.119 0.124923C210.244 1.06356 234.888 7.27897 257.447 18.366C316.384 47.4578 356.917 108.105 356.917 178.2Z" fill="#F4F4F5"/>
<path d="M257.447 18.366V243.553H111.628V12.9184C134.953 3.54552 159.994 -0.813709 185.119 0.124923C210.244 1.06356 234.889 7.27897 257.447 18.366Z" fill="white"/>
<path d="M146.718 121.057C150.674 114.524 155.361 107.549 162.702 105.416C171.203 102.945 179.936 107.853 187.343 112.695C209.496 127.178 230.829 142.873 251.245 159.709L251.223 159.963C235.328 158.868 219.433 157.774 203.538 156.679C192.054 155.888 180.176 154.988 170.027 149.564C166.176 147.505 162.422 144.755 158.058 144.564C152.636 144.326 147.909 148.107 144.194 152.057C122.218 175.425 115.858 211.159 91.2031 231.69C106.75 193.404 125.313 156.411 146.718 121.057Z" fill="#F4F4F5"/>
<path d="M268.113 24.108C267.744 23.8625 267.371 23.6297 267.002 23.3927C256.342 16.5846 244.916 11.0538 232.96 6.91455L230.187 45.1026H212.613V1.34C211.506 1.11143 210.392 0.895556 209.277 0.692383V45.1026H188.391C176.894 45.1026 165.867 40.5418 157.737 32.4237C149.607 24.3055 145.04 13.2949 145.04 1.81412V1.81407C143.921 2.05534 142.81 2.31354 141.7 2.58867V45.1026H124.689L122.048 8.68809C109.762 13.3934 98.0972 19.581 87.3145 27.1133C87.128 27.2403 86.9415 27.3715 86.7592 27.4985C85.8224 28.1546 84.8984 28.8234 83.9785 29.5006V242.066H134.112L133.226 229.812L128.352 95.6545H226.521L221.646 229.812L220.76 242.066H270.338V25.5811C269.601 25.0816 268.859 24.5906 268.113 24.108ZM141.7 84.5435H127.546L124.931 48.438H141.7V84.5435ZM209.277 84.5435H185.505V83.8282C185.505 83.4843 185.437 83.1438 185.305 82.8261C185.173 82.5085 184.98 82.2199 184.736 81.9769C184.492 81.734 184.203 81.5414 183.885 81.4102C183.566 81.279 183.225 81.2117 182.881 81.2123H172.546C172.202 81.2122 171.862 81.2797 171.544 81.4111C171.226 81.5426 170.937 81.7352 170.694 81.9782C170.451 82.2211 170.258 82.5095 170.126 82.827C169.994 83.1444 169.927 83.4846 169.927 83.8282V84.5435H145.04V48.438H209.277V84.5435ZM212.613 84.5435V48.438H229.946L227.33 84.5435H212.613Z" fill="#1D2533"/>
<path d="M346.714 237.732C346.709 237.745 346.705 237.753 346.701 237.766C346.671 237.855 346.642 237.935 346.608 238.024V238.029C345.162 242.084 343.574 246.071 341.843 249.99L14.9209 249.635C13.166 245.635 11.5552 241.562 10.0886 237.415C10.0838 237.406 10.0809 237.396 10.0801 237.385L346.714 237.732Z" fill="#1D2533"/>
<path d="M224.54 239.126H167.314V246.745H224.54V239.126Z" fill="white"/>
<path d="M91.5645 313.736C91.7679 311.945 92.0491 310.166 92.408 308.398C94.3696 298.812 98.5796 289.827 104.692 282.18C108.189 282.375 111.254 281.842 111.547 275.078C111.602 273.876 112.496 272.83 112.691 271.645C112.361 271.691 112.017 271.717 111.687 271.738C111.581 271.742 111.47 271.751 111.369 271.755H111.331C110.963 271.772 110.599 271.683 110.282 271.498C109.965 271.313 109.708 271.04 109.542 270.712C109.377 270.385 109.31 270.016 109.35 269.651C109.39 269.287 109.534 268.941 109.766 268.657C109.91 268.483 110.055 268.305 110.199 268.127C110.415 267.852 110.64 267.586 110.86 267.315C110.885 267.285 110.907 267.26 110.932 267.23C111.182 266.921 111.432 266.612 111.687 266.303C111.227 265.591 110.609 264.994 109.881 264.559C107.359 263.082 103.879 264.106 102.056 266.384C100.229 268.661 99.8812 271.861 100.517 274.705C101.06 277.143 102.242 279.378 103.569 281.503C103.433 281.677 103.289 281.846 103.154 282.024C100.654 285.235 98.4744 288.683 96.6469 292.318C97.1641 288.284 90.8438 273.723 88.398 270.637C85.4604 266.934 79.4411 268.551 78.924 273.249C78.9198 273.291 78.9113 273.338 78.907 273.385C79.2716 273.588 79.6277 273.804 79.9753 274.036C80.4119 274.328 80.7502 274.744 80.9459 275.231C81.1416 275.717 81.1855 276.252 81.0718 276.764C80.9582 277.276 80.6923 277.741 80.3091 278.1C79.9258 278.458 79.443 278.693 78.924 278.773L78.8689 278.781C74.0111 285.71 89.5891 303.746 93.4932 299.7C92.5116 302.454 91.7283 305.274 91.149 308.14C90.6292 310.667 90.2668 313.225 90.0639 315.797C89.8166 319.037 89.8322 322.291 90.1105 325.528C90.1028 325.49 90.0971 325.452 90.0935 325.414C89.2246 318.362 74.3587 307.877 70.018 308.749C67.5171 309.253 65.0543 309.139 65.4358 311.657C65.44 311.7 65.4485 311.738 65.4527 311.78C66.1268 312.052 66.7824 312.367 67.4153 312.724C67.7799 312.927 68.1359 313.147 68.4835 313.376C68.8924 313.649 69.2156 314.032 69.416 314.48C69.6164 314.929 69.6859 315.424 69.6163 315.911C69.5468 316.397 69.3411 316.854 69.0229 317.228C68.7047 317.603 68.2871 317.88 67.8181 318.028C69.662 319.479 71.5342 320.899 73.4346 322.286C73.7356 322.506 74.0365 322.726 74.3417 322.938C76.8215 324.724 79.3507 326.445 81.9294 328.102C85.0747 330.125 88.2878 332.052 91.5687 333.883C92.018 334.133 92.4673 334.383 92.9209 334.628C91.7806 329.943 91.2028 325.139 91.1999 320.317C91.1988 318.118 91.3205 315.921 91.5645 313.736ZM93.8831 298.612L93.8916 298.599C93.8915 298.607 93.8884 298.615 93.8831 298.62V298.612ZM90.5047 329.05L90.3733 328.758C90.3776 328.542 90.3776 328.33 90.3733 328.11C90.3733 328.051 90.3606 327.992 90.3606 327.932C90.4115 328.309 90.4539 328.686 90.509 329.062L90.5047 329.05ZM109.974 329.625C110.021 329.431 110.059 329.295 110.105 329.1C110.089 329.058 110.072 329.016 110.055 328.978C108.643 325.621 101.191 332.389 97.9694 337.287C101.742 339.191 105.59 340.966 109.512 342.611C109.775 342.281 110.046 341.955 110.313 341.625C110.339 341.596 110.36 341.57 110.381 341.541C110.957 340.829 111.538 340.127 112.11 339.416C112.115 339.276 112.115 339.136 112.115 339.001C112.109 336.962 111.859 334.931 111.369 332.952C110.975 332.97 110.585 332.867 110.252 332.657C109.919 332.446 109.659 332.139 109.506 331.776C109.354 331.413 109.318 331.012 109.401 330.627C109.485 330.242 109.685 329.893 109.974 329.625V329.625Z" fill="white"/>
<path d="M201.67 241.531C202.688 242.232 203.847 242.702 205.066 242.907C206.286 243.112 207.535 243.048 208.727 242.719C209.918 242.39 211.023 241.804 211.964 241.002C212.904 240.2 213.657 239.202 214.169 238.079L244.094 240.874L236.747 227.111L209.457 226.567C207.509 225.833 205.36 225.837 203.415 226.58C201.471 227.322 199.867 228.751 198.907 230.596C197.947 232.44 197.698 234.572 198.208 236.588C198.717 238.603 199.949 240.362 201.67 241.531V241.531Z" fill="#FFE5EF"/>
<path d="M232.013 240.592L273.423 245.227L273.566 245.045C273.839 244.697 300.934 210.063 305.487 201.818C308.288 196.865 309.308 191.104 308.378 185.492L308.347 185.355L308.239 185.264C306.031 183.417 303.259 182.376 300.38 182.313C297.5 182.25 294.685 183.168 292.399 184.917C281.404 193.42 272.539 204.358 266.504 216.868L263.079 223.987L232.013 227.047V240.592Z" fill="#E00051"/>
<path d="M198.416 337.454L190.438 356.002C189.294 356.082 188.148 356.147 187.001 356.196C186.094 356.243 185.191 356.277 184.279 356.302L183.97 356.4L183.716 356.319C182.49 356.357 181.261 356.381 180.028 356.391C179.506 356.395 178.985 356.4 178.459 356.4C178.213 356.4 177.968 356.4 177.722 356.395L178.252 354.584L178.875 352.438L181.35 343.938L184.924 331.667L190.239 333.945L198.416 337.454Z" fill="#FFE5EF"/>
<path d="M255.9 338.793C251.801 340.77 247.619 342.588 243.353 344.249L239.182 337.244L252.627 331.348L255.9 338.793Z" fill="#FFE5EF"/>
<path d="M284.271 306.953V321.708C281.792 323.537 279.262 325.3 276.684 326.999V306.953H284.271Z" fill="#E8E8EE"/>
<path d="M310.926 297.608C308.794 299.97 306.598 302.271 304.339 304.512C299.021 309.8 293.375 314.748 287.434 319.327H253.607C252.709 319.327 251.822 319.135 251.004 318.765C250.186 318.395 249.456 317.855 248.864 317.181L248.86 317.168C248.154 316.373 247.664 315.412 247.435 314.374L247.431 314.366C247.336 313.921 247.287 313.467 247.287 313.011V303.924C247.288 302.25 247.954 300.645 249.139 299.461C250.324 298.277 251.931 297.611 253.607 297.608H310.926Z" fill="#1D2533"/>
<path d="M324.863 262.137L321.196 277.824C321.555 280.096 321.674 282.4 321.552 284.698C319.814 287.026 318.021 289.307 316.173 291.542C314.469 293.603 312.72 295.625 310.925 297.608C308.793 299.969 306.598 302.271 304.338 304.511C298.455 306.357 291.52 307.11 284.271 307.161C281.77 307.182 279.231 307.114 276.683 306.979C266.353 306.437 255.904 304.782 247.346 303.064C245.082 302.615 242.954 302.158 240.996 301.713C237.287 300.879 234.184 300.101 231.937 299.508C229.407 298.848 227.966 298.42 227.966 298.42L218.339 314.517L209.598 329.129L198.335 343.482C197.259 343.58 196.181 343.661 195.101 343.728C193.957 343.808 192.811 343.873 191.663 343.922C190.756 343.969 189.853 344.003 188.942 344.028L188.633 344.126L188.378 344.045L184.292 342.746L182.914 342.31L177.959 340.735C177.959 340.735 179.065 337.256 181.003 331.453C181.715 329.324 186.759 313.582 192.036 299.838C193.601 295.758 195.22 291.618 196.886 287.5C198.251 284.118 199.641 280.748 201.048 277.426C203.494 271.665 215.312 268.558 229.229 266.928C229.937 266.848 230.649 266.768 231.365 266.691C238.457 265.946 245.981 265.561 253.017 265.383C256.54 265.295 259.94 265.261 263.102 265.256C264.123 265.256 265.117 265.259 266.082 265.265H266.086C268.693 265.278 271.092 265.316 273.203 265.358C273.614 265.367 274.013 265.379 274.403 265.388H274.407C274.67 265.392 274.928 265.4 275.183 265.405C279.799 265.523 282.631 265.667 282.631 265.667L283.728 257.066L283.953 255.331L284.165 253.68V253.676L284.19 253.468L284.364 253.464L287.416 253.405L313.07 252.905L323.997 252.443L324.863 262.137Z" fill="#1D2533"/>
<path d="M255.248 331.723C254.201 332.256 253.145 332.781 252.086 333.289C247.986 335.266 243.804 337.085 239.538 338.745C238.322 339.224 237.101 339.685 235.867 340.129C235.732 339.939 235.592 339.748 235.452 339.558C229.568 331.495 225.906 326.356 218.339 314.517C215.173 309.565 211.99 304.401 208.899 299.127L231.272 288.697L233.782 287.529L240.997 301.713L247.431 314.365L248.864 317.179L255.248 331.723Z" fill="#1D2533"/>
<path d="M291.538 160.868C302.921 160.868 312.15 151.653 312.15 140.286C312.15 128.919 302.921 119.704 291.538 119.704C280.154 119.704 270.926 128.919 270.926 140.286C270.926 151.653 280.154 160.868 291.538 160.868Z" fill="#FFE5EF"/>
<path d="M328.331 204.261C328.161 187.263 328.662 192.185 327.314 186.332C323.694 170.594 308.667 167.724 306.047 167.369C305.768 166.627 305.339 165.95 304.787 165.381C304.235 164.812 303.571 164.363 302.838 164.06C302.104 163.758 301.316 163.61 300.523 163.625C299.729 163.64 298.948 163.818 298.226 164.148L293.211 166.745C288.349 168.967 291.3 172.177 289.621 177.244L287.858 182.619L273.407 222.505L276.332 237.679L276.336 237.688L278.307 247.91L284.152 254.558L284.043 253.497L283.911 253.7L283.907 253.704L283.568 254.208C284.038 254.466 284.505 254.72 284.963 254.974C286.149 255.626 287.307 256.265 288.434 256.892C288.706 257.044 288.973 257.192 289.24 257.345H289.244C289.413 257.438 289.583 257.531 289.748 257.624C293.979 259.986 278.32 264.286 281.8 266.305C282.284 266.585 282.763 266.864 283.233 267.139C299.256 276.498 312.041 288.155 316.174 291.541C318.022 289.306 319.815 287.025 321.553 284.697C323.13 282.593 324.657 280.453 326.135 278.276C326.394 276.574 326.568 274.873 326.737 273.205C326.941 271.198 325.881 252.612 326.237 250.568C326.394 249.662 325.792 248.803 325.211 247.973C324.673 247.199 324.164 246.471 324.27 245.785C324.38 245.078 325.16 244.308 325.919 243.559C326.746 242.737 327.602 241.891 327.725 240.998C328.064 238.509 326.669 236.011 326.932 233.506C327.364 229.43 327.696 225.341 327.928 221.239C328.255 215.576 328.389 209.916 328.331 204.261Z" fill="#E00051"/>
<path d="M212.072 245.95C212.923 245.054 213.96 244.355 215.111 243.903C216.261 243.451 217.497 243.257 218.731 243.333C219.965 243.41 221.167 243.755 222.253 244.346C223.339 244.937 224.282 245.758 225.015 246.752L253.718 237.85L249.374 252.83L222.784 258.987C221.03 260.107 218.926 260.545 216.87 260.22C214.814 259.894 212.949 258.826 211.629 257.219C210.308 255.612 209.624 253.577 209.706 251.5C209.787 249.423 210.629 247.448 212.072 245.95L212.072 245.95Z" fill="#FFE5EF"/>
<path d="M246.869 254.239L300.145 243.271L286.318 246.691C286.475 246.277 302.015 205.158 303.902 195.934C305.099 190.372 304.355 184.569 301.794 179.488L301.723 179.367L301.593 179.312C298.935 178.205 295.978 178.035 293.211 178.831C290.443 179.627 288.029 181.341 286.368 183.69C278.408 195.076 273.207 208.154 271.175 221.891L270.028 229.706L251.245 235.317L246.869 254.239Z" fill="#E00051"/>
<path d="M147.583 237.488C147.77 238.031 148.124 238.501 148.595 238.83C149.066 239.159 149.629 239.331 150.204 239.321L161.433 239.032C162.013 239.021 162.572 238.823 163.029 238.468C163.486 238.112 163.816 237.619 163.969 237.061L165.558 220.093C166.122 220.348 166.735 220.474 167.354 220.462C168.44 220.435 169.471 219.978 170.219 219.192C170.968 218.406 171.373 217.355 171.346 216.271C171.318 215.187 170.861 214.158 170.074 213.41C169.287 212.663 168.235 212.258 167.149 212.286C166.901 212.285 166.655 212.31 166.413 212.362C166.15 212.078 165.83 211.852 165.474 211.698C165.118 211.545 164.734 211.468 164.347 211.472L147.073 211.917C146.93 211.922 146.787 211.94 146.647 211.97C146.268 212.041 145.909 212.191 145.593 212.412C145.278 212.633 145.013 212.919 144.817 213.25C144.622 213.582 144.499 213.951 144.458 214.334C144.418 214.716 144.46 215.103 144.581 215.468L147.583 237.488ZM165.884 218.941L167.015 214.898C167.143 214.431 167.146 213.938 167.023 213.469C167.078 213.469 167.126 213.443 167.181 213.443C167.957 213.427 168.707 213.719 169.267 214.254C169.827 214.789 170.152 215.525 170.17 216.299C170.189 217.073 169.898 217.823 169.364 218.384C168.829 218.945 168.094 219.271 167.318 219.292C166.817 219.307 166.321 219.186 165.884 218.941Z" fill="#1D2533"/>
<path d="M146.647 211.971C147.015 214.072 151.153 215.549 156.128 215.292C160.703 215.082 164.444 213.478 165.129 211.576C164.876 211.502 164.612 211.466 164.347 211.472L147.074 211.918C146.93 211.923 146.788 211.941 146.647 211.971Z" fill="#1D2533"/>
<path d="M71.5293 196.609V232.886C71.5297 233.348 71.7137 233.791 72.0411 234.118C72.3685 234.445 72.8124 234.629 73.2753 234.629H127.111C127.574 234.629 128.018 234.445 128.346 234.118C128.673 233.791 128.857 233.348 128.858 232.886V196.609C128.856 196.147 128.672 195.705 128.345 195.378C128.018 195.052 127.574 194.868 127.111 194.868H73.2753C72.8128 194.868 72.3693 195.052 72.042 195.378C71.7148 195.705 71.5304 196.147 71.5293 196.609Z" fill="#1D2533"/>
<path d="M72.791 197.06V232.437C72.7914 232.684 72.8899 232.921 73.0648 233.096C73.2397 233.27 73.4768 233.369 73.7242 233.369H126.662C126.909 233.369 127.147 233.27 127.321 233.096C127.496 232.921 127.595 232.684 127.595 232.437V197.06C127.595 196.812 127.497 196.575 127.322 196.4C127.147 196.225 126.91 196.127 126.662 196.126H73.7242C73.4765 196.127 73.2392 196.225 73.0643 196.4C72.8893 196.575 72.791 196.812 72.791 197.06Z" fill="#0096E0"/>
<path d="M70.4026 239.961C70.5012 240.084 70.6266 240.184 70.7692 240.252C70.9119 240.32 71.0682 240.355 71.2264 240.354H128.872C129.03 240.354 129.186 240.319 129.328 240.251C129.47 240.183 129.595 240.085 129.695 239.962C129.794 239.84 129.865 239.697 129.902 239.544C129.939 239.391 129.941 239.232 129.909 239.078L129.014 234.834C128.977 234.66 128.897 234.499 128.782 234.365C128.667 234.231 128.519 234.127 128.354 234.064C128.234 234.017 128.106 233.993 127.977 233.993H72.1177C71.9889 233.993 71.8612 234.017 71.7413 234.064C71.5756 234.127 71.4284 234.231 71.3131 234.365C71.1977 234.499 71.1179 234.66 71.0808 234.834L70.186 239.078C70.1541 239.232 70.157 239.391 70.1945 239.544C70.232 239.696 70.303 239.839 70.4026 239.961Z" fill="#1D2533"/>
<path d="M126 235.821H127.361C127.476 235.821 127.568 235.729 127.568 235.615V234.964C127.568 234.85 127.476 234.758 127.361 234.758H126C125.886 234.758 125.793 234.85 125.793 234.964V235.615C125.793 235.729 125.886 235.821 126 235.821Z" fill="#1D2533"/>
<path d="M122.449 235.821H123.811C123.925 235.821 124.018 235.729 124.018 235.615V234.964C124.018 234.85 123.925 234.758 123.811 234.758H122.449C122.335 234.758 122.242 234.85 122.242 234.964V235.615C122.242 235.729 122.335 235.821 122.449 235.821Z" fill="#1D2533"/>
<path d="M118.898 235.821H120.26C120.374 235.821 120.467 235.729 120.467 235.615V234.964C120.467 234.85 120.374 234.758 120.26 234.758H118.898C118.784 234.758 118.691 234.85 118.691 234.964V235.615C118.691 235.729 118.784 235.821 118.898 235.821Z" fill="#1D2533"/>
<path d="M115.347 235.821H116.708C116.822 235.821 116.915 235.729 116.915 235.615V234.964C116.915 234.85 116.822 234.758 116.708 234.758H115.347C115.232 234.758 115.14 234.85 115.14 234.964V235.615C115.14 235.729 115.232 235.821 115.347 235.821Z" fill="#1D2533"/>
<path d="M111.796 235.821H113.157C113.272 235.821 113.364 235.729 113.364 235.615V234.964C113.364 234.85 113.272 234.758 113.157 234.758H111.796C111.681 234.758 111.589 234.85 111.589 234.964V235.615C111.589 235.729 111.681 235.821 111.796 235.821Z" fill="#1D2533"/>
<path d="M108.245 235.821H109.607C109.721 235.821 109.813 235.729 109.813 235.615V234.964C109.813 234.85 109.721 234.758 109.607 234.758H108.245C108.131 234.758 108.038 234.85 108.038 234.964V235.615C108.038 235.729 108.131 235.821 108.245 235.821Z" fill="#1D2533"/>
<path d="M104.694 235.821H106.056C106.17 235.821 106.263 235.729 106.263 235.615V234.964C106.263 234.85 106.17 234.758 106.056 234.758H104.694C104.58 234.758 104.487 234.85 104.487 234.964V235.615C104.487 235.729 104.58 235.821 104.694 235.821Z" fill="#1D2533"/>
<path d="M101.142 235.821H102.504C102.618 235.821 102.711 235.729 102.711 235.615V234.964C102.711 234.85 102.618 234.758 102.504 234.758H101.142C101.028 234.758 100.935 234.85 100.935 234.964V235.615C100.935 235.729 101.028 235.821 101.142 235.821Z" fill="#1D2533"/>
<path d="M97.5916 235.821H98.9532C99.0675 235.821 99.1602 235.729 99.1602 235.615V234.964C99.1602 234.85 99.0675 234.758 98.9532 234.758H97.5916C97.4773 234.758 97.3847 234.85 97.3847 234.964V235.615C97.3847 235.729 97.4773 235.821 97.5916 235.821Z" fill="#1D2533"/>
<path d="M94.0409 235.821H95.4024C95.5167 235.821 95.6094 235.729 95.6094 235.615V234.964C95.6094 234.85 95.5167 234.758 95.4024 234.758H94.0409C93.9266 234.758 93.8339 234.85 93.8339 234.964V235.615C93.8339 235.729 93.9266 235.821 94.0409 235.821Z" fill="#1D2533"/>
<path d="M90.4901 235.821H91.8517C91.9659 235.821 92.0586 235.729 92.0586 235.615V234.964C92.0586 234.85 91.9659 234.758 91.8517 234.758H90.4901C90.3758 234.758 90.2831 234.85 90.2831 234.964V235.615C90.2831 235.729 90.3758 235.821 90.4901 235.821Z" fill="#1D2533"/>
<path d="M86.9393 235.821H88.3009C88.4152 235.821 88.5078 235.729 88.5078 235.615V234.964C88.5078 234.85 88.4152 234.758 88.3009 234.758H86.9393C86.825 234.758 86.7324 234.85 86.7324 234.964V235.615C86.7324 235.729 86.825 235.821 86.9393 235.821Z" fill="#1D2533"/>
<path d="M83.3885 235.821H84.7501C84.8644 235.821 84.957 235.729 84.957 235.615V234.964C84.957 234.85 84.8644 234.758 84.7501 234.758H83.3885C83.2742 234.758 83.1816 234.85 83.1816 234.964V235.615C83.1816 235.729 83.2742 235.821 83.3885 235.821Z" fill="#1D2533"/>
<path d="M79.8377 235.821H81.1993C81.3136 235.821 81.4062 235.729 81.4062 235.615V234.964C81.4062 234.85 81.3136 234.758 81.1993 234.758H79.8377C79.7234 234.758 79.6308 234.85 79.6308 234.964V235.615C79.6308 235.729 79.7234 235.821 79.8377 235.821Z" fill="#1D2533"/>
<path d="M76.2869 235.821H77.6485C77.7628 235.821 77.8555 235.729 77.8555 235.615V234.964C77.8555 234.85 77.7628 234.758 77.6485 234.758H76.2869C76.1727 234.758 76.08 234.85 76.08 234.964V235.615C76.08 235.729 76.1727 235.821 76.2869 235.821Z" fill="#1D2533"/>
<path d="M72.7362 235.821H74.0977C74.212 235.821 74.3047 235.729 74.3047 235.615V234.964C74.3047 234.85 74.212 234.758 74.0977 234.758H72.7362C72.6219 234.758 72.5292 234.85 72.5292 234.964V235.615C72.5292 235.729 72.6219 235.821 72.7362 235.821Z" fill="#1D2533"/>
<path d="M126.042 237.593H127.403C127.518 237.593 127.61 237.5 127.61 237.386V236.736C127.61 236.622 127.518 236.529 127.403 236.529H126.042C125.928 236.529 125.835 236.622 125.835 236.736V237.386C125.835 237.5 125.928 237.593 126.042 237.593Z" fill="#1D2533"/>
<path d="M122.491 237.593H123.853C123.967 237.593 124.06 237.5 124.06 237.386V236.736C124.06 236.622 123.967 236.529 123.853 236.529H122.491C122.377 236.529 122.284 236.622 122.284 236.736V237.386C122.284 237.5 122.377 237.593 122.491 237.593Z" fill="#1D2533"/>
<path d="M118.939 237.593H120.301C120.415 237.593 120.508 237.5 120.508 237.386V236.736C120.508 236.622 120.415 236.529 120.301 236.529H118.939C118.825 236.529 118.732 236.622 118.732 236.736V237.386C118.732 237.5 118.825 237.593 118.939 237.593Z" fill="#1D2533"/>
<path d="M115.389 237.593H116.75C116.864 237.593 116.957 237.5 116.957 237.386V236.736C116.957 236.622 116.864 236.529 116.75 236.529H115.389C115.274 236.529 115.182 236.622 115.182 236.736V237.386C115.182 237.5 115.274 237.593 115.389 237.593Z" fill="#1D2533"/>
<path d="M111.838 237.593H113.199C113.314 237.593 113.406 237.5 113.406 237.386V236.736C113.406 236.622 113.314 236.529 113.199 236.529H111.838C111.723 236.529 111.631 236.622 111.631 236.736V237.386C111.631 237.5 111.723 237.593 111.838 237.593Z" fill="#1D2533"/>
<path d="M108.287 237.593H109.649C109.763 237.593 109.855 237.5 109.855 237.386V236.736C109.855 236.622 109.763 236.529 109.649 236.529H108.287C108.173 236.529 108.08 236.622 108.08 236.736V237.386C108.08 237.5 108.173 237.593 108.287 237.593Z" fill="#1D2533"/>
<path d="M104.736 237.593H106.098C106.212 237.593 106.305 237.5 106.305 237.386V236.736C106.305 236.622 106.212 236.529 106.098 236.529H104.736C104.622 236.529 104.529 236.622 104.529 236.736V237.386C104.529 237.5 104.622 237.593 104.736 237.593Z" fill="#1D2533"/>
<path d="M101.185 237.593H102.547C102.661 237.593 102.754 237.5 102.754 237.386V236.736C102.754 236.622 102.661 236.529 102.547 236.529H101.185C101.071 236.529 100.978 236.622 100.978 236.736V237.386C100.978 237.5 101.071 237.593 101.185 237.593Z" fill="#1D2533"/>
<path d="M97.6346 237.593H98.9962C99.1105 237.593 99.2031 237.5 99.2031 237.386V236.736C99.2031 236.622 99.1105 236.529 98.9962 236.529H97.6346C97.5203 236.529 97.4277 236.622 97.4277 236.736V237.386C97.4277 237.5 97.5203 237.593 97.6346 237.593Z" fill="#1D2533"/>
<path d="M94.0838 237.593H95.4454C95.5597 237.593 95.6523 237.5 95.6523 237.386V236.736C95.6523 236.622 95.5597 236.529 95.4454 236.529H94.0838C93.9695 236.529 93.8769 236.622 93.8769 236.736V237.386C93.8769 237.5 93.9695 237.593 94.0838 237.593Z" fill="#1D2533"/>
<path d="M90.533 237.593H91.8946C92.0089 237.593 92.1016 237.5 92.1016 237.386V236.736C92.1016 236.622 92.0089 236.529 91.8946 236.529H90.533C90.4187 236.529 90.3261 236.622 90.3261 236.736V237.386C90.3261 237.5 90.4187 237.593 90.533 237.593Z" fill="#1D2533"/>
<path d="M86.9822 237.593H88.3438C88.4581 237.593 88.5508 237.5 88.5508 237.386V236.736C88.5508 236.622 88.4581 236.529 88.3438 236.529H86.9822C86.868 236.529 86.7753 236.622 86.7753 236.736V237.386C86.7753 237.5 86.868 237.593 86.9822 237.593Z" fill="#1D2533"/>
<path d="M83.4315 237.593H84.7931C84.9074 237.593 85 237.5 85 237.386V236.736C85 236.622 84.9074 236.529 84.7931 236.529H83.4315C83.3172 236.529 83.2245 236.622 83.2245 236.736V237.386C83.2245 237.5 83.3172 237.593 83.4315 237.593Z" fill="#1D2533"/>
<path d="M79.8787 237.593H81.2403C81.3546 237.593 81.4473 237.5 81.4473 237.386V236.736C81.4473 236.622 81.3546 236.529 81.2403 236.529H79.8787C79.7644 236.529 79.6718 236.622 79.6718 236.736V237.386C79.6718 237.5 79.7644 237.593 79.8787 237.593Z" fill="#1D2533"/>
<path d="M76.328 237.593H77.6895C77.8038 237.593 77.8965 237.5 77.8965 237.386V236.736C77.8965 236.622 77.8038 236.529 77.6895 236.529H76.328C76.2137 236.529 76.121 236.622 76.121 236.736V237.386C76.121 237.5 76.2137 237.593 76.328 237.593Z" fill="#1D2533"/>
<path d="M72.7772 237.593H74.1388C74.2531 237.593 74.3457 237.5 74.3457 237.386V236.736C74.3457 236.622 74.2531 236.529 74.1388 236.529H72.7772C72.6629 236.529 72.5702 236.622 72.5702 236.736V237.386C72.5702 237.5 72.6629 237.593 72.7772 237.593Z" fill="#1D2533"/>
<path d="M96.5686 239.724H110.358C110.473 239.724 110.565 239.631 110.565 239.517V238.867C110.565 238.752 110.473 238.66 110.358 238.66H96.5686C96.4543 238.66 96.3617 238.752 96.3617 238.867V239.517C96.3617 239.631 96.4543 239.724 96.5686 239.724Z" fill="#1D2533"/>
<path d="M200.483 237.989L224.577 216.954C225.723 215.954 223.538 218.934 224.54 220.078C225.541 221.222 229.35 220.097 228.204 221.097L204.11 242.131L198.009 243.522L200.483 237.989Z" fill="#1D2533"/>
<path d="M200.483 237.987L201.067 237.477C201.847 237.867 202.543 238.406 203.115 239.063C203.793 239.835 204.285 240.751 204.554 241.742L204.11 242.129L199.247 243.238L198.009 243.521L198.525 242.361L200.483 237.987Z" fill="#D3D4DB"/>
<path d="M198.525 242.364C198.706 242.443 198.865 242.564 198.991 242.716C199.116 242.868 199.204 243.048 199.247 243.24L198.009 243.523L198.525 242.364Z" fill="#1D2533"/>
<path d="M357.688 170.572C355.416 173.967 351.779 176.316 347.862 177.48C346.271 177.953 344.629 178.232 342.97 178.31C342.766 176.438 342.275 174.608 341.517 172.883C341.594 174.719 341.338 176.553 340.762 178.297C338.272 178.156 335.838 177.505 333.611 176.384C329.266 174.162 325.922 169.912 325.18 165.091C324.306 159.461 326.863 153.933 327.787 148.312C328.715 142.691 326.973 135.572 321.462 134.094C317.266 132.968 317.736 133.455 314.248 136.041C317.876 141.399 304.473 161.034 298.987 159.322C295.886 158.354 293.901 155.512 293.261 155.512C288.95 162.928 297.067 175.423 288.886 178.018L289.56 177.345C294.498 171.279 284.177 158.441 289.115 152.376C290.493 150.678 291.959 148.668 291.552 146.522C291.167 144.482 287.924 143.402 286.974 145.078C288.683 141.172 286.16 135.957 281.985 134.954C278.276 134.061 278.344 135.161 274.622 135.639C274.379 134.033 273.924 132.466 273.27 130.979C273.338 132.582 273.151 134.185 272.715 135.728C271.4 135.703 270.13 135.244 269.103 134.425C266.068 131.982 266.683 126.852 269.391 124.054C272.104 121.256 276.135 120.249 279.98 119.597C281.098 111.825 302.572 111.015 305.418 118.78C306.63 112.981 313.9 109.972 319.55 111.771C325.201 113.57 329.122 118.839 331.186 124.393C333.251 129.942 333.827 135.914 335.099 141.696C336.37 147.478 338.52 153.366 342.945 157.307C347.37 161.243 354.581 162.547 359.244 158.89C360.715 162.699 359.956 167.173 357.688 170.572Z" fill="#1D2533"/>
</g>
<defs>
<clipPath id="clip0_524_52287">
<rect width="360" height="356.4" fill="white"/>
</clipPath>
</defs>
</svg>
